<svg width="24" height="24" viewBox="0 0 24 24" fill="none" xmlns="http://www.w3.org/2000/svg">
<path d="M6.63164 8.1629C6.93756 7.65302 7.09053 7.39808 7.30113 7.2129C7.4875 7.04902 7.70574 6.92546 7.94215 6.84996C8.20929 6.76465 8.5066 6.76465 9.10122 6.76465H14.8988C15.4934 6.76465 15.7907 6.76465 16.0579 6.84996C16.2943 6.92546 16.5125 7.04902 16.6989 7.2129C16.9095 7.39808 17.0624 7.65302 17.3684 8.1629L18.5896 10.1983C18.7423 10.4529 18.8187 10.5802 18.8727 10.7161C18.9207 10.8367 18.9554 10.9622 18.9764 11.0903C19 11.2346 19 11.3831 19 11.68V14.5905C19 15.5986 19 16.1027 18.8038 16.4877C18.6312 16.8264 18.3559 17.1018 18.0172 17.2743C17.6321 17.4705 17.1281 17.4705 16.12 17.4705H7.88C6.87191 17.4705 6.36786 17.4705 5.98282 17.2743C5.64413 17.1018 5.36876 16.8264 5.19619 16.4877C5 16.1027 5 15.5986 5 14.5905V11.68C5 11.3831 5 11.2346 5.0236 11.0903C5.04456 10.9622 5.07932 10.8367 5.12727 10.7161C5.18128 10.5802 5.25766 10.4529 5.41042 10.1983L6.63164 8.1629Z" stroke="#222222"/>
<path d="M19 12.0146H17.008C16.4489 12.0146 16.1693 12.0146 15.9439 12.1389C15.8733 12.1778 15.8077 12.2251 15.7484 12.2798C15.5593 12.4543 15.4709 12.7195 15.2941 13.2499V13.2499C15.1173 13.7804 15.0289 14.0456 14.8398 14.2201C14.7805 14.2748 14.7149 14.3221 14.6443 14.361C14.4189 14.4852 14.1394 14.4852 13.5802 14.4852H10.4198C9.86064 14.4852 9.58108 14.4852 9.35571 14.361C9.2851 14.3221 9.21945 14.2748 9.1602 14.2201C8.9711 14.0456 8.88269 13.7804 8.70588 13.2499V13.2499C8.52907 12.7195 8.44067 12.4543 8.25156 12.2798C8.19231 12.2251 8.12667 12.1778 8.05606 12.1389C7.83069 12.0146 7.55113 12.0146 6.992 12.0146H5" stroke="#222222"/>
</svg>
