<svg width="84" height="91" viewBox="0 0 84 91" fill="none" xmlns="http://www.w3.org/2000/svg">
<path fill-rule="evenodd" clip-rule="evenodd" d="M55.6802 60.3871L54.5402 55.8272C58.1245 52.278 60.5792 47.4036 61.3065 42.4031C63.2926 41.8436 64.8312 40.1406 65.0969 38.0042L65.9711 31.0106C66.1565 29.5349 65.7018 28.0419 64.7227 26.9229C64.1492 26.2654 63.4254 25.7689 62.6246 25.4647L62.9464 18.8802L64.2543 17.5689C66.223 15.4743 67.8559 11.8831 64.4431 6.67289C61.8205 2.66938 57.3657 0.637695 51.1974 0.637695C48.7636 0.637695 43.1618 0.637695 37.9447 4.14142C23.0483 4.45276 21.0202 11.3728 21.0202 18.1216C21.0202 19.6917 21.4013 23.2269 21.6531 25.3599C20.7544 25.6432 19.9397 26.1677 19.3032 26.8915C18.3067 28.021 17.8451 29.5211 18.0305 31.0142L18.9046 38.0078C19.1913 40.2876 20.9222 42.0815 23.1112 42.5082C23.835 47.3162 26.1638 52.0334 29.5417 55.5232L28.3249 60.3941L14.9288 63.744C6.15886 65.9294 0.0395508 78.5692 0.0395508 87.6118C0.0395508 88.577 0.822885 94.1602 1.788 94.1602H82.2138C83.1789 94.1602 83.9622 88.57 83.9622 87.605C83.9621 78.5692 77.8428 65.9294 69.0764 63.737L55.6802 60.3871Z" fill="white"/>
</svg>
