<svg width="21" height="20" viewBox="0 0 21 20" fill="none" xmlns="http://www.w3.org/2000/svg">
<g clip-path="url(#clip0_333_31)">
<path d="M20.5 0H0.5V20H20.5V0Z" fill="black" fill-opacity="0.01"/>
<path d="M11.5044 6.16577C11.0097 6.16577 10.5664 6.25444 10.1744 6.43177C9.78239 6.59977 9.44638 6.85177 9.16638 7.18777C8.89571 7.52377 8.68571 7.92977 8.53638 8.40577C8.39638 8.88177 8.32638 9.41844 8.32638 10.0158C8.32638 10.7998 8.44304 11.4811 8.67638 12.0598C8.90971 12.6291 9.25972 13.0678 9.72639 13.3758C10.1931 13.6838 10.7811 13.8378 11.4904 13.8378C11.9197 13.8378 12.3304 13.8005 12.7224 13.7258C13.1237 13.6418 13.5297 13.5345 13.9404 13.4038V14.7058C13.5484 14.8551 13.1471 14.9625 12.7364 15.0278C12.3257 15.1025 11.8497 15.1398 11.3084 15.1398C10.2911 15.1398 9.44171 14.9298 8.76038 14.5098C8.08838 14.0898 7.58438 13.4925 7.24838 12.7178C6.91238 11.9431 6.74438 11.0378 6.74438 10.0018C6.74438 9.24577 6.84704 8.5551 7.05238 7.92977C7.26704 7.2951 7.57504 6.7491 7.97638 6.29177C8.37771 5.83444 8.87239 5.48444 9.46039 5.24177C10.0577 4.98977 10.7437 4.86377 11.5184 4.86377C12.0224 4.86377 12.5171 4.91977 13.0024 5.03177C13.4877 5.13444 13.9264 5.28377 14.3184 5.47977L13.7584 6.73977C13.4317 6.59044 13.0771 6.45977 12.6944 6.34777C12.3211 6.22644 11.9244 6.16577 11.5044 6.16577Z" fill="#222222"/>
<path d="M20 0.5H1V19.5H20V0.5Z" stroke="#222222"/>
</g>
<defs>
<clipPath id="clip0_333_31">
<rect width="21" height="20" fill="white"/>
</clipPath>
</defs>
</svg>
