<svg width="18" height="20" viewBox="0 0 18 20" fill="none" xmlns="http://www.w3.org/2000/svg">
<path d="M17.4998 12.9097V7.10974C17.4998 6.54974 17.3498 5.98977 17.0698 5.50977C16.7798 5.01977 16.3698 4.61973 15.8798 4.34973L10.5698 1.41974C10.0998 1.14974 9.55977 1.00977 9.00977 1.00977C8.45977 1.00977 7.91977 1.14974 7.44977 1.41974L2.13977 4.34973C1.64977 4.61973 1.23977 5.01977 0.939774 5.50977C0.649774 5.98977 0.509766 6.54974 0.509766 7.10974V12.9097C0.509766 13.4697 0.659774 14.0198 0.939774 14.5098C1.23977 14.9898 1.64977 15.3897 2.13977 15.6697L7.44977 18.5997C7.91977 18.8697 8.45977 19.0098 9.00977 19.0098C9.55977 19.0098 10.0998 18.8697 10.5698 18.5997L15.8798 15.6697C16.3698 15.3997 16.7798 14.9998 17.0698 14.5198C17.3598 14.0398 17.4998 13.4897 17.4998 12.9297V12.9097Z" stroke="#222222" stroke-miterlimit="10"/>
</svg>
