<svg width="24" height="24" viewBox="0 0 24 24" fill="none" xmlns="http://www.w3.org/2000/svg">
<path d="M14.4 12.5998C17.3823 12.5998 19.8 11.5253 19.8 10.1998C19.8 8.87432 17.3823 7.7998 14.4 7.7998C11.4177 7.7998 9 8.87432 9 10.1998C9 11.5253 11.4177 12.5998 14.4 12.5998Z" stroke="#222222" stroke-linecap="round" stroke-linejoin="round"/>
<path d="M9 10.2002V17.4002C9 18.7202 11.4 19.8002 14.4 19.8002C17.4 19.8002 19.8 18.7202 19.8 17.4002V10.2002" stroke="#222222" stroke-linecap="round" stroke-linejoin="round"/>
<path d="M19.8 13.7998C19.8 15.1198 17.4 16.1998 14.4 16.1998C11.4 16.1998 9 15.1198 9 13.7998" stroke="#222222" stroke-linecap="round" stroke-linejoin="round"/>
<path d="M14.2792 5.39998C12.877 4.53464 11.2448 4.11612 9.59922 4.19998C6.61122 4.19998 4.19922 5.27998 4.19922 6.59998C4.19922 7.30798 4.89522 7.94398 5.99922 8.39998" stroke="#222222" stroke-linecap="round" stroke-linejoin="round"/>
<path d="M5.99922 15.5996C4.89522 15.1436 4.19922 14.5076 4.19922 13.7996V6.59961" stroke="#222222" stroke-linecap="round" stroke-linejoin="round"/>
<path d="M5.99922 12.0002C4.89522 11.5442 4.19922 10.9082 4.19922 10.2002" stroke="#222222" stroke-linecap="round" stroke-linejoin="round"/>
</svg>
