<svg width="24" height="24" viewBox="0 0 24 24" fill="none" xmlns="http://www.w3.org/2000/svg">
<path d="M19.801 4.2002H16.801L15.757 14.5802C15.7136 14.8663 15.5682 15.1272 15.3477 15.3146C15.1272 15.502 14.8464 15.6035 14.557 15.6002H6.99698C6.7353 15.6139 6.47635 15.5415 6.25966 15.3941C6.04298 15.2468 5.88048 15.0326 5.79698 14.7842L4.20098 9.9842C4.14148 9.80373 4.12568 9.61172 4.15489 9.42396C4.18409 9.2362 4.25747 9.05805 4.36898 8.9042C4.48515 8.74061 4.64049 8.60876 4.82077 8.52072C5.00106 8.43267 5.20055 8.39123 5.40098 8.4002H16.381" stroke="#222222" stroke-linecap="round" stroke-linejoin="round"/>
<path d="M7.20156 19.8006C7.53293 19.8006 7.80156 19.532 7.80156 19.2006C7.80156 18.8692 7.53293 18.6006 7.20156 18.6006C6.87019 18.6006 6.60156 18.8692 6.60156 19.2006C6.60156 19.532 6.87019 19.8006 7.20156 19.8006Z" stroke="#222222" stroke-linecap="round" stroke-linejoin="round"/>
<path d="M15.0004 19.8006C15.3318 19.8006 15.6004 19.532 15.6004 19.2006C15.6004 18.8692 15.3318 18.6006 15.0004 18.6006C14.669 18.6006 14.4004 18.8692 14.4004 19.2006C14.4004 19.532 14.669 19.8006 15.0004 19.8006Z" stroke="#222222" stroke-linecap="round" stroke-linejoin="round"/>
</svg>
