<svg width="24" height="25" viewBox="0 0 24 25" fill="none" xmlns="http://www.w3.org/2000/svg">
<path d="M11.9952 2.88847C15.2 2.88847 15.5762 2.90275 16.8429 2.95989C18.0143 3.01227 18.6476 3.20751 19.0714 3.37418C19.6333 3.59323 20.0333 3.85037 20.4524 4.26942C20.8714 4.68846 21.1333 5.08846 21.3476 5.65037C21.5095 6.07418 21.7095 6.70751 21.7619 7.87894C21.819 9.1456 21.8333 9.52179 21.8333 12.7266C21.8333 15.9313 21.819 16.3075 21.7619 17.5742C21.7095 18.7456 21.5143 19.3789 21.3476 19.8027C21.1286 20.3646 20.8714 20.7646 20.4524 21.1837C20.0333 21.6027 19.6333 21.8646 19.0714 22.0789C18.6476 22.2408 18.0143 22.4408 16.8429 22.4932C15.5762 22.5504 15.2 22.5646 11.9952 22.5646C8.79048 22.5646 8.41429 22.5504 7.14762 22.4932C5.97619 22.4408 5.34286 22.2456 4.91905 22.0789C4.35714 21.8599 3.95714 21.6027 3.5381 21.1837C3.11905 20.7646 2.85714 20.3646 2.64286 19.8027C2.48095 19.3789 2.28095 18.7456 2.22857 17.5742C2.17143 16.3075 2.15714 15.9313 2.15714 12.7266C2.15714 9.52179 2.17143 9.1456 2.22857 7.87894C2.28095 6.70751 2.47619 6.07418 2.64286 5.65037C2.8619 5.08846 3.11905 4.68846 3.5381 4.26942C3.95714 3.85037 4.35714 3.58846 4.91905 3.37418C5.34286 3.21227 5.97619 3.01227 7.14762 2.95989C8.41429 2.89799 8.79524 2.88847 11.9952 2.88847ZM11.9952 0.726562C8.7381 0.726562 8.32857 0.740848 7.04762 0.797991C5.77143 0.855134 4.9 1.0599 4.1381 1.35513C3.34762 1.65989 2.68095 2.07418 2.01429 2.74085C1.34762 3.40751 0.938095 4.07894 0.628571 4.86465C0.333333 5.62656 0.128571 6.49799 0.0714286 7.77894C0.0142857 9.05513 0 9.46465 0 12.7218C0 15.9789 0.0142857 16.3885 0.0714286 17.6694C0.128571 18.9456 0.333333 19.817 0.628571 20.5837C0.933333 21.3742 1.34762 22.0408 2.01429 22.7075C2.68095 23.3742 3.35238 23.7837 4.1381 24.0932C4.9 24.3884 5.77143 24.5932 7.05238 24.6503C8.33333 24.7075 8.7381 24.7218 12 24.7218C15.2619 24.7218 15.6667 24.7075 16.9476 24.6503C18.2238 24.5932 19.0952 24.3884 19.8619 24.0932C20.6524 23.7884 21.319 23.3742 21.9857 22.7075C22.6524 22.0408 23.0619 21.3694 23.3714 20.5837C23.6667 19.8218 23.8714 18.9504 23.9286 17.6694C23.9857 16.3885 24 15.9837 24 12.7218C24 9.45989 23.9857 9.05513 23.9286 7.77417C23.8714 6.49799 23.6667 5.62656 23.3714 4.85989C23.0667 4.06942 22.6524 3.40275 21.9857 2.73608C21.319 2.06942 20.6476 1.65989 19.8619 1.35037C19.1 1.05513 18.2286 0.850372 16.9476 0.793229C15.6619 0.740848 15.2524 0.726562 11.9952 0.726562Z" fill="#222222"/>
<path d="M11.9959 6.56445C8.59589 6.56445 5.83398 9.32159 5.83398 12.7264C5.83398 16.1311 8.59112 18.8883 11.9959 18.8883C15.4006 18.8883 18.1578 16.1311 18.1578 12.7264C18.1578 9.32159 15.4006 6.56445 11.9959 6.56445ZM11.9959 16.7216C9.78636 16.7216 7.99589 14.9311 7.99589 12.7216C7.99589 10.5121 9.78636 8.72159 11.9959 8.72159C14.2054 8.72159 15.9959 10.5121 15.9959 12.7216C15.9959 14.9311 14.2054 16.7216 11.9959 16.7216Z" fill="#222222"/>
<path d="M18.4 7.75509C19.1942 7.75509 19.8381 7.11124 19.8381 6.317C19.8381 5.52276 19.1942 4.87891 18.4 4.87891C17.6058 4.87891 16.9619 5.52276 16.9619 6.317C16.9619 7.11124 17.6058 7.75509 18.4 7.75509Z" fill="#222222"/>
</svg>
