<svg width="20" height="20" viewBox="0 0 20 20" fill="none" xmlns="http://www.w3.org/2000/svg">
<path fill-rule="evenodd" clip-rule="evenodd" d="M12.1851 5.38752C11.7102 5.94818 11.0598 6.49195 10.008 6.40944C9.93788 5.38102 10.3368 4.65924 10.8201 4.09598C11.2684 3.57106 12.0902 3.10394 12.8776 3C12.9621 4.04336 12.6691 4.82296 12.1851 5.38752V5.38752Z" fill="#222222"/>
<path fill-rule="evenodd" clip-rule="evenodd" d="M14.8299 16.2623C14.3602 16.9087 13.7846 17.7786 12.7568 17.7786C11.8687 17.7786 11.2788 17.2076 10.3687 17.192C9.40586 17.1764 8.87638 17.6695 7.99609 17.7936C7.89539 17.7936 7.79469 17.7936 7.69594 17.7936C7.04953 17.7 6.52785 17.1881 6.14779 16.7268C5.02712 15.3638 4.16112 13.6032 4 11.3502C4 11.1293 4 10.9091 4 10.6882C4.06821 9.07574 4.85171 7.76472 5.89313 7.12934C6.44274 6.79152 7.1983 6.50371 8.03961 6.63235C8.40018 6.68822 8.76854 6.81165 9.09143 6.93379C9.39742 7.05139 9.78006 7.25992 10.1426 7.24888C10.3882 7.24173 10.6324 7.11375 10.8799 7.02344C11.605 6.76164 12.3157 6.46149 13.2525 6.60247C14.3784 6.77267 15.1775 7.27292 15.6712 8.04472C14.7188 8.65086 13.9659 9.56429 14.0945 11.1241C14.2088 12.5411 15.0326 13.37 16.0617 13.8586C15.7661 14.7538 15.3444 15.5503 14.8299 16.2623V16.2623Z" fill="#222222"/>
</svg>
