<svg width="20" height="20" viewBox="0 0 20 20" fill="none" xmlns="http://www.w3.org/2000/svg">
<path d="M1.66602 9.9987L1.27558 9.68635L1.0257 9.9987L1.27558 10.311L1.66602 9.9987ZM9.16602 10.4987C9.44216 10.4987 9.66602 10.2748 9.66602 9.9987C9.66602 9.72256 9.44216 9.4987 9.16602 9.4987V10.4987ZM4.60891 5.51968L1.27558 9.68635L2.05645 10.311L5.38978 6.14438L4.60891 5.51968ZM1.27558 10.311L4.60891 14.4777L5.38978 13.853L2.05645 9.68635L1.27558 10.311ZM1.66602 10.4987H9.16602V9.4987H1.66602V10.4987Z" fill="#222222"/>
<path d="M8.33398 6.77791V6.61528C8.33398 5.10242 8.33398 4.34599 8.75165 3.8057C8.78814 3.75849 8.82673 3.71293 8.8673 3.66917C9.33158 3.16837 10.0777 3.04401 11.57 2.7953V2.7953C14.5994 2.2904 16.1141 2.03794 17.1437 2.81668C17.2319 2.88337 17.3163 2.95488 17.3966 3.03089C18.334 3.91843 18.334 5.45404 18.334 8.52526V11.4773C18.334 14.5486 18.334 16.0842 17.3966 16.9717C17.3163 17.0477 17.2319 17.1192 17.1437 17.1859C16.1141 17.9647 14.5989 17.7121 11.5685 17.207V17.207C10.0779 16.9586 9.33262 16.8344 8.86859 16.3348C8.82712 16.2902 8.78771 16.2437 8.75049 16.1954C8.33398 15.6556 8.33398 14.9002 8.33398 13.3896V13.3896" stroke="#222222"/>
</svg>
