<svg width="24" height="25" viewBox="0 0 24 25" fill="none" xmlns="http://www.w3.org/2000/svg">
<path fill-rule="evenodd" clip-rule="evenodd" d="M0.817383 11.2669C0.817383 6.39333 5.83546 2.37891 12.0579 2.37891C18.2723 2.37891 23.3144 6.3853 23.3144 11.2669C23.3144 16.1485 18.2883 20.1629 12.0739 20.1629C11.3944 20.1596 10.7158 20.1114 10.0426 20.0184L5.48219 23.0935C5.42807 23.1399 5.3606 23.168 5.28949 23.1737C5.20373 23.1735 5.12098 23.1422 5.05666 23.0854C5.01255 23.041 4.98167 22.9852 4.96749 22.9242C4.95331 22.8632 4.95639 22.7996 4.97637 22.7403L6.03619 18.7819C2.9049 17.2003 0.817383 14.4303 0.817383 11.2669ZM8.25294 9.03545C8.28825 8.90333 8.37119 8.78892 8.48578 8.71427C8.60788 8.64507 8.74702 8.61168 8.88723 8.61793H9.19232C9.3411 8.6126 9.48843 8.64874 9.61786 8.72231C9.75501 8.81454 9.85246 8.95496 9.89084 9.11572L11.4966 13.6521C11.5383 13.7704 11.5731 13.8911 11.601 14.0134C11.6037 14.0643 11.6037 14.1151 11.601 14.1659C11.6037 14.2442 11.5893 14.3221 11.5588 14.3942C11.5283 14.4663 11.4824 14.5309 11.4244 14.5835C11.3681 14.6411 11.3006 14.6866 11.226 14.717C11.1514 14.7473 11.0713 14.762 10.9908 14.7601C10.867 14.7724 10.7426 14.7427 10.6377 14.6757C10.5329 14.6087 10.4536 14.5083 10.4127 14.3908L10.0755 13.4032H7.9639L7.62669 14.3908C7.5868 14.5106 7.50658 14.613 7.39971 14.6803C7.29283 14.7476 7.16591 14.7758 7.04057 14.7601C6.9048 14.7636 6.77182 14.7212 6.66321 14.6396C6.5574 14.5555 6.48601 14.4356 6.46249 14.3025C6.45823 14.2571 6.45823 14.2113 6.46249 14.1659C6.4487 14.0862 6.4487 14.0048 6.46249 13.9251C6.46249 13.8616 6.49154 13.794 6.5198 13.7281L6.51981 13.7281C6.53085 13.7024 6.54178 13.6769 6.55081 13.6521L8.25294 9.03545ZM9.05583 10.0873L8.29308 12.496H9.81055L9.05583 10.0873ZM4.75105 9.86131H3.52263C3.37037 9.86572 3.22 9.82673 3.08906 9.74889C3.03093 9.71247 2.98096 9.6644 2.94227 9.60776C2.90358 9.55111 2.87702 9.48707 2.86425 9.41968C2.86035 9.37694 2.86035 9.33402 2.86425 9.29128C2.86044 9.21133 2.87596 9.13158 2.9095 9.0589C2.94305 8.98622 2.99363 8.92273 3.05695 8.87376C3.19692 8.77239 3.36587 8.71884 3.53868 8.72116H7.24002C7.39348 8.71577 7.54488 8.75785 7.67358 8.84162C7.73308 8.87643 7.78411 8.92406 7.82299 8.98099C7.86187 9.03791 7.88762 9.10274 7.89839 9.17083C7.90231 9.21088 7.90231 9.25124 7.89839 9.29128C7.90217 9.37239 7.88669 9.45323 7.85319 9.52719C7.8197 9.60116 7.76915 9.66608 7.7057 9.71674C7.56913 9.81799 7.40181 9.86908 7.23199 9.86131H6.04371V14.0845C6.04853 14.1745 6.03461 14.2645 6.00282 14.3488C5.97103 14.4331 5.92207 14.5099 5.85904 14.5743C5.7986 14.6359 5.72595 14.6841 5.64575 14.7159C5.56555 14.7477 5.47957 14.7624 5.39336 14.7589C5.24257 14.7632 5.09499 14.715 4.97586 14.6225C4.86245 14.5321 4.78547 14.4038 4.75908 14.2611C4.75115 14.2025 4.75115 14.1431 4.75908 14.0845L4.75105 9.86131ZM11.9615 8.8026C11.8402 8.9361 11.7767 9.11217 11.7849 9.29236L11.809 13.8608C11.8031 13.949 11.8031 14.0376 11.809 14.1258C11.8335 14.286 11.92 14.4302 12.0498 14.5272C12.195 14.6218 12.3668 14.6667 12.5396 14.6556H15.2534C15.4262 14.6579 15.5951 14.6045 15.7351 14.5031C15.7984 14.4542 15.849 14.3906 15.8826 14.3179C15.9161 14.2452 15.9316 14.1656 15.9278 14.0856V13.9651C15.9155 13.8976 15.8891 13.8334 15.8504 13.7767C15.8117 13.72 15.7615 13.672 15.703 13.6359C15.5729 13.5553 15.4225 13.5136 15.2694 13.5156H13.0615V9.29236C13.0694 9.23643 13.0694 9.17961 13.0615 9.12368C13.0383 8.97957 12.9642 8.84856 12.8527 8.75438C12.7324 8.66412 12.5856 8.6161 12.4352 8.61786C12.3477 8.6138 12.2604 8.62819 12.1788 8.66C12.0972 8.69181 12.0232 8.74041 11.9615 8.8026ZM16.0727 9.29179C16.0679 9.11213 16.1309 8.93727 16.2493 8.80203C16.3696 8.69269 16.524 8.62812 16.6864 8.61934C16.8487 8.61057 17.0091 8.65807 17.1405 8.75381C17.2545 8.84716 17.3314 8.97811 17.3573 9.12311C17.3613 9.17924 17.3613 9.23565 17.3573 9.29179V11.2588L19.3886 8.91435C19.4669 8.83437 19.55 8.75937 19.6375 8.68962C19.72 8.64051 19.8145 8.61541 19.9105 8.61729C20.0508 8.61652 20.1881 8.65855 20.3039 8.73774C20.3585 8.7745 20.4051 8.82193 20.441 8.87711C20.4769 8.93229 20.5012 8.9941 20.5127 9.05892C20.5159 9.07481 20.5159 9.09124 20.5127 9.10714C20.5088 9.12567 20.5088 9.14476 20.5127 9.1633C20.5124 9.24778 20.4903 9.3308 20.4484 9.4042C20.4058 9.48193 20.3547 9.55456 20.2959 9.6209L18.9631 11.0822L20.5689 13.5712V13.6514C20.6522 13.7665 20.7173 13.8939 20.7616 14.0289V14.069C20.7709 14.162 20.7574 14.2559 20.7225 14.3426C20.6875 14.4293 20.6321 14.5062 20.5608 14.5667C20.4269 14.668 20.263 14.7217 20.0952 14.7193C19.9836 14.7239 19.8728 14.6989 19.774 14.647C19.6671 14.5753 19.579 14.4789 19.5171 14.366L18.0237 11.9573L17.3091 12.7041V14.0448C17.3139 14.2245 17.2509 14.3994 17.1325 14.5346C17.069 14.5966 16.9936 14.6451 16.9107 14.6768C16.8279 14.7086 16.7394 14.7231 16.6508 14.7193C16.5026 14.7224 16.3579 14.6742 16.2413 14.5828C16.1279 14.4924 16.0509 14.3642 16.0245 14.2216C16.0166 14.1629 16.0166 14.1035 16.0245 14.0448L16.0727 9.29179Z" fill="#222222"/>
</svg>
