<svg width="20" height="20" viewBox="0 0 20 20" fill="none" xmlns="http://www.w3.org/2000/svg">
<path d="M2.5 7.08203C2.5 6.38505 2.5 6.03656 2.55764 5.74676C2.79436 4.55669 3.72466 3.6264 4.91473 3.38968C5.20453 3.33203 5.55302 3.33203 6.25 3.33203H13.75C14.447 3.33203 14.7955 3.33203 15.0853 3.38968C16.2753 3.6264 17.2056 4.55669 17.4424 5.74676C17.5 6.03656 17.5 6.38505 17.5 7.08203V7.70703C17.5 8.05221 17.2202 8.33203 16.875 8.33203H16.6667C15.7462 8.33203 15 9.07822 15 9.9987V9.9987C15 10.9192 15.7462 11.6654 16.6667 11.6654H16.875C17.2202 11.6654 17.5 11.9452 17.5 12.2904V12.9154C17.5 13.6123 17.5 13.9608 17.4424 14.2506C17.2056 15.4407 16.2753 16.371 15.0853 16.6077C14.7955 16.6654 14.447 16.6654 13.75 16.6654H6.25C5.55302 16.6654 5.20453 16.6654 4.91473 16.6077C3.72466 16.371 2.79436 15.4407 2.55764 14.2506C2.5 13.9608 2.5 13.6123 2.5 12.9154V12.2904C2.5 11.9452 2.77982 11.6654 3.125 11.6654H3.33333C4.25381 11.6654 5 10.9192 5 9.9987V9.9987C5 9.07822 4.25381 8.33203 3.33333 8.33203H3.125C2.77982 8.33203 2.5 8.05221 2.5 7.70703V7.08203Z" stroke="#222222"/>
<path d="M9.63128 8.90582C9.77139 8.54334 9.84145 8.3621 9.95526 8.33698C9.98519 8.33038 10.0161 8.33038 10.046 8.33698C10.1599 8.3621 10.2299 8.54334 10.37 8.90582C10.4497 9.11196 10.4895 9.21502 10.5641 9.28513C10.585 9.30479 10.6077 9.3223 10.6318 9.33742C10.718 9.39131 10.8256 9.4013 11.0407 9.4213C11.4048 9.45514 11.5869 9.47206 11.6425 9.57979C11.654 9.60211 11.6618 9.62626 11.6656 9.65126C11.6841 9.77197 11.5502 9.89834 11.2825 10.1511L11.2082 10.2213C11.083 10.3394 11.0205 10.3985 10.9843 10.4723C10.9626 10.5165 10.948 10.5641 10.9412 10.6133C10.9298 10.6952 10.9481 10.7809 10.9848 10.9523L10.9979 11.0135C11.0636 11.321 11.0965 11.4747 11.0554 11.5502C11.0186 11.6181 10.9507 11.6615 10.8757 11.6652C10.7923 11.6694 10.6747 11.5699 10.4394 11.371C10.2844 11.24 10.207 11.1744 10.1209 11.1488C10.0423 11.1254 9.95897 11.1254 9.88036 11.1488C9.79434 11.1744 9.71685 11.24 9.56188 11.371C9.32665 11.5699 9.20904 11.6694 9.12557 11.6652C9.05059 11.6615 8.98272 11.6181 8.94587 11.5502C8.90485 11.4747 8.93771 11.321 9.00343 11.0135L9.01653 10.9523C9.05318 10.7809 9.0715 10.6952 9.06013 10.6133C9.05331 10.5641 9.03875 10.5165 9.01704 10.4723C8.98084 10.3985 8.91827 10.3394 8.79311 10.2213L8.71878 10.1511C8.45108 9.89834 8.31723 9.77197 8.33566 9.65126C8.33948 9.62626 8.34731 9.60211 8.35882 9.57979C8.41442 9.47206 8.59649 9.45514 8.96064 9.4213C9.17574 9.4013 9.2833 9.39131 9.36946 9.33742C9.39362 9.3223 9.41632 9.30479 9.43723 9.28513C9.51177 9.21502 9.55161 9.11196 9.63128 8.90582Z" fill="#222222" stroke="#222222"/>
</svg>
