<svg width="24" height="24" viewBox="0 0 24 24" fill="none" xmlns="http://www.w3.org/2000/svg">
<g clip-path="url(#clip0_1056_9111)">
<path d="M8.08989 20.34L3.5599 20.99C3.4799 21.01 3.4099 21 3.3299 20.99C3.2599 20.97 3.1899 20.93 3.1299 20.87C3.0699 20.82 3.0399 20.75 3.0099 20.67C2.9899 20.6 2.9799 20.52 3.0099 20.44L3.6599 15.91C3.7299 15.39 3.96989 14.92 4.33989 14.55L14.8399 4.06C15.1799 3.72 15.5699 3.46 16.0099 3.28C16.4499 3.1 16.9199 3 17.3899 3C17.8599 3 18.3299 3.09 18.7699 3.28C19.2099 3.46 19.6099 3.73 19.9399 4.06C20.2799 4.39 20.5399 4.79001 20.7199 5.23001C20.8999 5.67001 20.9999 6.13999 20.9999 6.60999C20.9999 7.07999 20.9099 7.54999 20.7199 7.98999C20.5399 8.42999 20.2699 8.83 19.9399 9.16L9.4999 19.66C9.1199 20.04 8.61989 20.27 8.08989 20.34Z" stroke="#222222" stroke-miterlimit="10"/>
<path d="M17.0298 6.97949L15.5098 8.48947" stroke="#222222" stroke-width="1.5" stroke-miterlimit="10" stroke-linecap="round"/>
</g>
<defs>
<clipPath id="clip0_1056_9111">
<rect width="24" height="24" fill="white"/>
</clipPath>
</defs>
</svg>
