<svg width="24" height="25" viewBox="0 0 24 25" fill="none" xmlns="http://www.w3.org/2000/svg">
<path d="M23.4957 7.37004C23.2174 6.32656 22.4 5.50917 21.3739 5.23091C19.4957 4.72656 12 4.72656 12 4.72656C12 4.72656 4.48696 4.72656 2.62609 5.23091C1.6 5.50917 0.782609 6.32656 0.504348 7.37004C2.34272e-07 9.2483 0 13.1787 0 13.1787C0 13.1787 2.34272e-07 17.1092 0.504348 18.9874C0.782609 20.0309 1.6 20.8483 2.62609 21.1266C4.50435 21.6309 12 21.6309 12 21.6309C12 21.6309 19.513 21.6309 21.3739 21.1266C22.4 20.8483 23.2174 20.0309 23.4957 18.9874C24 17.1092 24 13.1787 24 13.1787C24 13.1787 24 9.2483 23.4957 7.37004ZM9.54783 16.744V9.61352L15.8261 13.1787L9.54783 16.744Z" fill="#222222"/>
</svg>
