<svg width="20" height="20" viewBox="0 0 20 20" fill="none" xmlns="http://www.w3.org/2000/svg">
<g clip-path="url(#clip0_995_2655)">
<path d="M16.6668 6.52501V14.5833C16.6668 15.3583 16.3585 16.0916 15.8168 16.6416C15.2668 17.1916 14.5251 17.5 13.7585 17.5H6.25846C5.4918 17.5 4.7418 17.1916 4.20013 16.6416C3.65013 16.0916 3.3418 15.35 3.3418 14.5833V5.41667C3.3418 4.64167 3.65846 3.90836 4.20013 3.35836C4.75013 2.81669 5.4918 2.50833 6.25846 2.5H12.6501C13.0918 2.525 13.5001 2.69168 13.8251 2.98335L16.1835 5.34164C16.4751 5.66664 16.6418 6.08334 16.6668 6.51667V6.52501Z" stroke="#222222" stroke-miterlimit="10" stroke-linecap="round"/>
<path d="M9.11622 11.666H10.8745C11.3079 11.666 11.7162 11.841 12.0162 12.141C12.3246 12.441 12.4912 12.8577 12.4912 13.291V17.4993H7.49121V13.291C7.49121 12.8577 7.65788 12.4494 7.96622 12.141C8.26622 11.841 8.68288 11.666 9.10788 11.666H9.11622Z" stroke="#222222" stroke-miterlimit="10" stroke-linecap="round"/>
<path d="M7.97461 8.33398H12.0246" stroke="#222222" stroke-miterlimit="10" stroke-linecap="round"/>
</g>
<defs>
<clipPath id="clip0_995_2655">
<rect width="20" height="20" fill="white"/>
</clipPath>
</defs>
</svg>
