<svg width="20" height="20" viewBox="0 0 20 20" fill="none" xmlns="http://www.w3.org/2000/svg">
<g clip-path="url(#clip0_333_35)">
<path d="M20 0H0V20H20V0Z" fill="black" fill-opacity="0.01"/>
<path d="M12.5554 12.2978C12.5554 12.8951 12.4107 13.4038 12.1214 13.8238C11.832 14.2438 11.4167 14.5705 10.8754 14.8038C10.334 15.0278 9.68997 15.1398 8.9433 15.1398C8.5793 15.1398 8.2293 15.1165 7.8933 15.0698C7.5573 15.0325 7.24463 14.9765 6.9553 14.9018C6.66597 14.8271 6.4093 14.7338 6.1853 14.6218V13.1938C6.55863 13.3618 6.9973 13.5158 7.5013 13.6558C8.0053 13.7865 8.51864 13.8518 9.0413 13.8518C9.4893 13.8518 9.86264 13.7911 10.1614 13.6698C10.46 13.5485 10.684 13.3805 10.8334 13.1658C10.9827 12.9511 11.0574 12.6991 11.0574 12.4098C11.0574 12.1018 10.978 11.8451 10.8194 11.6398C10.67 11.4251 10.432 11.2291 10.1054 11.0518C9.78797 10.8651 9.35863 10.6691 8.8173 10.4638C8.44397 10.3238 8.1033 10.1698 7.7953 10.0018C7.49663 9.82444 7.23063 9.6191 6.9973 9.38577C6.7733 9.15244 6.60063 8.88177 6.4793 8.57377C6.35797 8.26577 6.2973 7.90644 6.2973 7.49577C6.2973 6.9451 6.43263 6.47377 6.7033 6.08177C6.9833 5.68977 7.36597 5.3911 7.8513 5.18577C8.33664 4.9711 8.9013 4.86377 9.5453 4.86377C10.0867 4.86377 10.586 4.91977 11.0434 5.03177C11.51 5.13444 11.9534 5.2791 12.3734 5.46577L11.8974 6.71177C11.5147 6.5531 11.1274 6.42244 10.7354 6.31977C10.3434 6.2171 9.93263 6.16577 9.5033 6.16577C9.12997 6.16577 8.8173 6.22177 8.5653 6.33377C8.3133 6.44577 8.12197 6.59977 7.9913 6.79577C7.86997 6.99177 7.8093 7.22044 7.8093 7.48177C7.8093 7.78977 7.8793 8.04644 8.0193 8.25177C8.1593 8.4571 8.3833 8.64844 8.6913 8.82577C8.9993 8.99377 9.4053 9.18044 9.9093 9.38577C10.4694 9.60044 10.9454 9.83377 11.3374 10.0858C11.7387 10.3378 12.042 10.6411 12.2474 10.9958C12.4527 11.3411 12.5554 11.7751 12.5554 12.2978Z" fill="#222222"/>
<path d="M19.5 0.5H0.5V19.5H19.5V0.5Z" stroke="#222222"/>
</g>
<defs>
<clipPath id="clip0_333_35">
<rect width="20" height="20" fill="white"/>
</clipPath>
</defs>
</svg>
