<svg width="21" height="20" viewBox="0 0 21 20" fill="none" xmlns="http://www.w3.org/2000/svg">
<rect x="0.5" width="20" height="20" fill="black" fill-opacity="0.01"/>
<path d="M9.5922 15L6.5682 6.502H6.5122C6.52154 6.68867 6.53554 6.94067 6.5542 7.258C6.57287 7.57533 6.58687 7.916 6.5962 8.28C6.60554 8.644 6.6102 9.00333 6.6102 9.358V15H5.2382V5.004H7.3942L10.2642 13.026H10.3202L13.2742 5.004H15.4302V15H13.9602V9.274C13.9602 8.94733 13.9649 8.61133 13.9742 8.266C13.9929 7.91133 14.0069 7.58 14.0162 7.272C14.0349 6.964 14.0489 6.712 14.0582 6.516H14.0022L10.8942 15H9.5922Z" fill="#222222"/>
<rect x="1" y="0.5" width="19" height="19" stroke="#222222"/>
</svg>
