<svg width="16" height="16" viewBox="0 0 16 16" fill="none" xmlns="http://www.w3.org/2000/svg">
<g clip-path="url(#clip0_334_39)">
<path fill-rule="evenodd" clip-rule="evenodd" d="M8 0C12.4183 0 16 3.58173 16 8C16 12.4183 12.4183 16 8 16C3.58173 16 0 12.4183 0 8C0 3.58173 3.58173 0 8 0Z" fill="#FFB7C9"/>
<path d="M12 7.41695C12 5.52985 10.4702 4 8.58305 4C6.69595 4 5.1661 5.52985 5.1661 7.41695V8.88136H3L4.22034 10.8339H5.1661V12.7254L7.11864 11.5051V7.41695C7.11864 6.60817 7.77427 5.95254 8.58305 5.95254C9.39183 5.95254 10.0475 6.60817 10.0475 7.41695C10.0475 8.22573 9.39183 8.88136 8.58305 8.88136H7.54576V10.6734C7.87297 10.7776 8.22137 10.8339 8.58305 10.8339C9.28795 10.8339 9.94312 10.6203 10.4872 10.2545L12 11.2V7.41695Z" fill="white"/>
</g>
<defs>
<clipPath id="clip0_334_39">
<rect width="16" height="16" fill="white"/>
</clipPath>
</defs>
</svg>
