<svg width="4" height="18" viewBox="0 0 4 18" fill="none" xmlns="http://www.w3.org/2000/svg">
<path fill-rule="evenodd" clip-rule="evenodd" d="M2.00113 0C3.05549 0 3.91022 0.854731 3.91022 1.90909C3.91022 2.96345 3.05549 3.81818 2.00113 3.81818C0.946772 3.81818 0.092041 2.96345 0.092041 1.90909C0.092041 0.854731 0.946772 0 2.00113 0Z" fill="#222222"/>
<path fill-rule="evenodd" clip-rule="evenodd" d="M2.00113 7.09082C3.05549 7.09082 3.91022 7.94555 3.91022 8.99991C3.91022 10.0543 3.05549 10.909 2.00113 10.909C0.946772 10.909 0.092041 10.0543 0.092041 8.99991C0.092041 7.94555 0.946772 7.09082 2.00113 7.09082Z" fill="#222222"/>
<path fill-rule="evenodd" clip-rule="evenodd" d="M2.00113 14.1816C3.05549 14.1816 3.91022 15.0364 3.91022 16.0907C3.91022 17.1451 3.05549 17.9998 2.00113 17.9998C0.946772 17.9998 0.092041 17.1451 0.092041 16.0907C0.092041 15.0364 0.946772 14.1816 2.00113 14.1816Z" fill="#222222"/>
</svg>
