<svg width="21" height="20" viewBox="0 0 21 20" fill="none" xmlns="http://www.w3.org/2000/svg">
<g clip-path="url(#clip0_333_27)">
<path d="M20.5 0H0.5V20H20.5V0Z" fill="black" fill-opacity="0.01"/>
<path d="M14.988 9.9881C14.988 10.7628 14.89 11.4674 14.694 12.1021C14.5073 12.7274 14.218 13.2688 13.826 13.7261C13.4433 14.1834 12.958 14.5334 12.37 14.7761C11.7913 15.0188 11.1147 15.1401 10.34 15.1401C9.54665 15.1401 8.85598 15.0188 8.26798 14.7761C7.68931 14.5241 7.20398 14.1741 6.81198 13.7261C6.42931 13.2688 6.14465 12.7228 5.95798 12.0881C5.77131 11.4534 5.67798 10.7488 5.67798 9.9741C5.67798 8.94743 5.84598 8.05143 6.18198 7.2861C6.51798 6.52077 7.03131 5.92343 7.72198 5.4941C8.42198 5.06477 9.29931 4.8501 10.354 4.8501C11.3807 4.8501 12.2347 5.06477 12.916 5.4941C13.6067 5.9141 14.1247 6.51143 14.47 7.2861C14.8153 8.05143 14.988 8.9521 14.988 9.9881ZM7.27398 9.9881C7.27398 10.7908 7.38131 11.4814 7.59598 12.0601C7.81065 12.6294 8.14665 13.0728 8.60398 13.3901C9.06131 13.6981 9.63998 13.8521 10.34 13.8521C11.0493 13.8521 11.628 13.6981 12.076 13.3901C12.524 13.0728 12.8553 12.6294 13.07 12.0601C13.2847 11.4814 13.392 10.7908 13.392 9.9881C13.392 8.7841 13.1493 7.8461 12.664 7.1741C12.188 6.49277 11.418 6.1521 10.354 6.1521C9.64465 6.1521 9.06131 6.3061 8.60398 6.6141C8.14665 6.9221 7.81065 7.36077 7.59598 7.9301C7.38131 8.49943 7.27398 9.18543 7.27398 9.9881Z" fill="#222222"/>
<path d="M20 0.5H1V19.5H20V0.5Z" stroke="#222222"/>
</g>
<defs>
<clipPath id="clip0_333_27">
<rect width="21" height="20" fill="white"/>
</clipPath>
</defs>
</svg>
