<svg width="62" height="60" viewBox="0 0 62 60" fill="none" xmlns="http://www.w3.org/2000/svg">
<path d="M61.8881 23.4965C61.8881 10.5199 51.3682 0 38.3916 0C25.415 0 14.8951 10.5199 14.8951 23.4965V33.5664H0L8.39161 46.993H14.8951V60L28.3217 51.6084V23.4965C28.3217 17.935 32.8301 13.4266 38.3916 13.4266C43.9531 13.4266 48.4615 17.935 48.4615 23.4965C48.4615 29.058 43.9531 33.5664 38.3916 33.5664H31.2587V45.8895C33.5087 46.6059 35.9045 46.993 38.3916 46.993C43.2388 46.993 47.7441 45.5245 51.4857 43.0091L61.8881 49.5105V23.4965Z" fill="url(#paint0_linear_177_1576)"/>
<defs>
<linearGradient id="paint0_linear_177_1576" x1="16.2587" y1="14.1084" x2="42.1879" y2="63.348" gradientUnits="userSpaceOnUse">
<stop stop-color="#FFDAB6"/>
<stop offset="0.4" stop-color="#FF8AE3"/>
<stop offset="1" stop-color="#00CFFF"/>
</linearGradient>
</defs>
</svg>
