<svg width="55" height="59" viewBox="0 0 55 59" fill="none" xmlns="http://www.w3.org/2000/svg">
<path d="M27.3828 0.5C42.1961 0.5 54.2656 13.4269 54.2656 29.4509C54.2656 45.475 42.1961 58.4018 27.3828 58.4018C12.5695 58.4018 0.5 45.475 0.5 29.4509C0.5 13.4269 12.5695 0.5 27.3828 0.5Z" fill="#E8E8E8" stroke="#EFEFEF"/>
<mask id="mask0_18_2256" style="mask-type:luminance" maskUnits="userSpaceOnUse" x="1" y="1" width="53" height="57">
<path fill-rule="evenodd" clip-rule="evenodd" d="M27.3832 1.17773C41.9014 1.17773 53.6707 13.836 53.6707 29.4506C53.6707 45.0653 41.9014 57.7235 27.3832 57.7235C12.865 57.7235 1.0957 45.0653 1.0957 29.4506C1.0957 13.836 12.865 1.17773 27.3832 1.17773Z" fill="white"/>
</mask>
<g mask="url(#mask0_18_2256)">
<path fill-rule="evenodd" clip-rule="evenodd" d="M33.6267 42.8943L33.1064 40.6561C34.7422 38.914 35.8625 36.5214 36.1944 34.0669C37.1008 33.7923 37.803 32.9564 37.9243 31.9077L38.3232 28.4749C38.4078 27.7506 38.2003 27.0177 37.7535 26.4684C37.4918 26.1457 37.1614 25.902 36.796 25.7527L36.9428 22.5207L37.5397 21.8771C38.4382 20.8489 39.1834 19.0862 37.6259 16.5288C36.429 14.5637 34.3959 13.5664 31.5808 13.5664C30.4701 13.5664 27.9135 13.5664 25.5325 15.2862C18.7341 15.439 17.8086 18.8357 17.8086 22.1484C17.8086 22.919 17.9825 24.6543 18.0974 25.7013C17.6872 25.8403 17.3154 26.0978 17.025 26.4531C16.5701 27.0075 16.3595 27.7438 16.4441 28.4767L16.843 31.9095C16.9739 33.0285 17.7638 33.909 18.7628 34.1185C19.0932 36.4785 20.156 38.7939 21.6976 40.5069L21.1423 42.8978L15.0285 44.5421C11.0261 45.6148 8.2334 51.819 8.2334 56.2575C8.2334 56.7313 8.5909 59.4718 9.03135 59.4718H45.7361C46.1766 59.4718 46.5341 56.7279 46.5341 56.2542C46.534 51.819 43.7412 45.6148 39.7404 44.5386L33.6267 42.8943Z" fill="white"/>
</g>
</svg>
